<?xml version="1.0" encoding="utf-8"?>
<!-- Generator: Adobe Illustrator 15.0.0, SVG Export Plug-In . SVG Version: 6.00 Build 0)  -->
<!DOCTYPE svg PUBLIC "-//W3C//DTD SVG 1.1//EN" "http://www.w3.org/Graphics/SVG/1.1/DTD/svg11.dtd">
<svg version="1.1" id="Layer_1" xmlns="http://www.w3.org/2000/svg" xmlns:xlink="http://www.w3.org/1999/xlink" x="0px" y="0px"
	 width="17px" height="23px" viewBox="0 0 17 23" enable-background="new 0 0 17 23" xml:space="preserve">
<path fill-rule="evenodd" clip-rule="evenodd" fill="none" d="M15.951,23H1.018C0.456,23,0,22.467,0,21.811V1.199
	C0,0.542,0.456,0.01,1.018,0.01h14.933c0.563,0,1.019,0.532,1.019,1.189v20.612C16.97,22.467,16.514,23,15.951,23z M8.485,22.207
	c0.375,0,0.678-0.355,0.678-0.793s-0.303-0.793-0.678-0.793s-0.679,0.355-0.679,0.793S8.11,22.207,8.485,22.207z M14.934,2.389
	H2.036v17.439h12.897V2.389z"/>
<path fill-rule="evenodd" clip-rule="evenodd" fill="#FFFFFF" d="M15.981,22.99H1.048c-0.562,0-1.018-0.533-1.018-1.189V1.189
	C0.03,0.532,0.486,0,1.048,0h14.933C16.544,0,17,0.532,17,1.189v20.612C17,22.457,16.544,22.99,15.981,22.99z M8.515,22.197
	c0.375,0,0.678-0.355,0.678-0.793s-0.303-0.793-0.678-0.793s-0.679,0.355-0.679,0.793S8.14,22.197,8.515,22.197z M14.964,2.379
	H2.066v17.439h12.897V2.379z"/>
</svg>
